<?xml version="1.0" standalone="no"?>
<!DOCTYPE svg PUBLIC "-//W3C//DTD SVG 20010904//EN"
 "http://www.w3.org/TR/2001/REC-SVG-20010904/DTD/svg10.dtd">
<svg version="1.0" xmlns="http://www.w3.org/2000/svg"
 width="146.000000pt" height="146.000000pt" viewBox="0 0 146.000000 146.000000"
 preserveAspectRatio="xMidYMid meet">
<metadata>
Created by potrace 1.11, written by Peter Selinger 2001-2013
</metadata>
<g transform="translate(0.000000,146.000000) scale(0.100000,-0.100000)"
fill="#000000" stroke="none">
<path d="M264 1335 c-22 -34 -12 -75 20 -75 13 0 30 7 37 17 13 15 11 16 -13
9 -25 -6 -28 -4 -28 18 0 26 21 47 28 28 2 -7 11 -12 19 -12 10 0 13 6 9 16
-3 9 -6 18 -6 20 0 2 -11 4 -25 4 -15 0 -31 -9 -41 -25z"/>
<path d="M364 1342 c-9 -8 -14 -28 -12 -46 3 -27 7 -31 33 -31 59 0 75 88 16
91 -12 1 -29 -5 -37 -14z m46 -19 c0 -10 -5 -25 -10 -33 -15 -22 -32 7 -19 32
12 23 29 23 29 1z"/>
<path d="M460 1348 c0 -7 -3 -30 -6 -50 -5 -25 -3 -38 5 -38 6 0 11 9 11 19 0
30 16 33 28 6 12 -26 31 -34 33 -12 1 6 2 29 4 50 2 21 -1 35 -6 31 -5 -3 -9
-13 -10 -22 0 -14 -3 -13 -16 6 -17 24 -43 30 -43 10z"/>
<path d="M573 1348 c-17 -28 -12 -41 13 -37 4 0 10 -5 15 -12 11 -18 -12 -31
-28 -17 -8 6 -17 8 -20 4 -9 -9 16 -26 38 -26 9 0 22 7 29 15 7 8 16 15 21 15
5 0 9 -7 9 -15 0 -18 55 -21 66 -3 4 6 11 29 14 50 9 48 -11 47 -21 -1 -8 -37
-14 -45 -27 -37 -6 3 -7 20 -2 42 7 30 6 35 -8 32 -10 -2 -17 -13 -17 -27 0
-29 -17 -37 -35 -16 -8 10 -9 15 -1 15 6 0 11 7 11 15 0 18 -45 20 -57 3z"/>
<path d="M753 1348 c0 -7 -3 -30 -7 -50 l-7 -38 36 0 c23 0 35 5 35 14 0 8 -8
13 -17 12 -15 -1 -17 6 -15 37 2 26 -1 37 -11 37 -8 0 -14 -6 -14 -12z"/>
<path d="M820 1350 c0 -5 4 -10 10 -10 5 0 7 -18 5 -41 -3 -29 -1 -39 8 -36 7
2 13 18 15 36 2 18 10 35 18 38 26 10 14 23 -21 23 -19 0 -35 -4 -35 -10z"/>
<path d="M912 1348 c-18 -24 -24 -59 -12 -73 24 -29 66 -10 83 37 12 35 -47
64 -71 36z m42 -30 c-1 -13 -3 -28 -3 -35 -1 -7 -8 -10 -16 -7 -15 6 -21 45
-8 57 14 15 30 6 27 -15z"/>
<path d="M1005 1347 c-2 -7 -6 -29 -8 -49 -5 -43 16 -54 27 -15 l7 22 9 -22
c12 -28 30 -30 30 -3 0 11 5 29 12 40 7 10 9 22 5 26 -13 13 -78 14 -82 1z
m45 -27 c-18 -11 -24 -6 -16 16 5 14 9 15 19 5 9 -9 9 -14 -3 -21z"/>
<path d="M1110 1340 c0 -11 0 -21 1 -22 0 -2 -4 -15 -10 -30 -9 -23 -8 -28 5
-28 17 0 21 10 27 63 4 27 1 37 -9 37 -8 0 -14 -9 -14 -20z"/>
<path d="M1170 1335 c-6 -14 -14 -36 -20 -50 -11 -28 -8 -30 21 -12 17 10 23
10 26 0 3 -7 10 -13 17 -13 10 0 11 10 5 43 -4 23 -8 45 -9 50 -1 18 -31 5
-40 -18z m25 -35 c-6 -9 -9 -9 -16 1 -10 17 0 34 13 21 6 -6 7 -16 3 -22z"/>
<path d="M618 1069 c-15 -4 -29 -5 -32 -2 -2 3 -11 1 -18 -3 -7 -5 -18 -9 -24
-10 -23 -4 -99 -54 -127 -83 -15 -16 -40 -56 -55 -88 -23 -49 -27 -71 -27
-143 0 -110 23 -160 110 -241 47 -43 112 -88 119 -82 3 4 6 2 6 -4 0 -6 29
-29 64 -52 35 -23 82 -61 105 -83 22 -23 41 -36 41 -28 0 7 3 11 6 7 3 -3 31
8 61 25 29 17 57 27 61 24 8 -8 -33 -42 -63 -52 -23 -8 -46 -30 -39 -37 3 -3
12 -3 20 0 17 6 18 -9 2 -25 -9 -9 -8 -12 5 -12 11 0 17 -6 15 -18 -2 -10 2
-16 10 -14 7 1 12 -5 10 -15 -2 -11 2 -17 11 -15 8 2 11 -3 8 -12 -4 -10 6
-17 36 -25 35 -9 48 -7 77 8 89 47 99 55 109 96 6 26 7 42 0 46 -5 3 -7 13 -3
22 5 13 2 16 -11 11 -14 -6 -16 -3 -10 14 4 13 2 22 -4 22 -6 0 -11 7 -11 15
0 8 -7 15 -16 15 -11 0 -14 6 -9 21 7 20 4 20 -43 -7 -28 -16 -55 -25 -59 -20
-4 5 -2 11 5 13 6 3 10 8 8 12 -3 4 0 8 7 8 7 0 25 8 40 18 26 17 28 21 21 64
-3 25 -8 66 -9 91 -2 25 -6 83 -9 130 -15 237 -62 331 -192 386 -59 25 -148
36 -196 23z m188 -79 c75 -37 121 -119 139 -245 4 -35 14 -190 19 -294 1 -37
9 -30 -135 -113 l-45 -27 -30 27 c-16 15 -74 58 -129 96 -182 125 -237 197
-238 311 0 117 76 226 182 260 64 21 178 13 237 -15z"/>
<path d="M455 803 c-14 -101 -17 -118 -22 -125 -2 -5 7 -8 21 -8 20 0 26 5 27
23 1 42 6 67 12 74 4 3 8 -1 8 -10 1 -9 3 -26 4 -37 1 -11 3 -27 4 -35 2 -30
39 -16 51 20 6 19 16 35 21 35 6 0 7 -15 3 -35 -6 -33 -5 -35 20 -35 28 0 31
7 41 95 3 28 8 58 11 68 4 14 -1 17 -34 17 -36 0 -40 -2 -52 -40 -15 -45 -30
-53 -30 -16 0 43 -10 56 -45 56 -31 0 -33 -2 -40 -47z"/>
<path d="M685 803 c-4 -27 -11 -65 -15 -85 -4 -20 -4 -40 1 -45 4 -4 35 -6 68
-5 52 3 61 7 61 23 0 16 -7 19 -40 19 -39 0 -52 12 -28 26 7 5 24 7 38 6 19
-1 26 3 27 17 1 15 -6 21 -30 23 -46 4 -39 22 9 26 32 2 43 8 47 23 5 17 0 19
-63 19 l-69 0 -6 -47z"/>
<path d="M846 828 c-3 -13 -7 -43 -11 -68 -3 -25 -8 -55 -12 -67 -4 -20 -1
-23 24 -23 29 0 30 1 41 78 16 102 16 102 -13 102 -18 0 -26 -6 -29 -22z"/>
</g>
</svg>
